<svg xmlns="http://www.w3.org/2000/svg" viewBox="0 0 32 32" width="32" height="32">
  <!-- Background circle with gradient -->
  <defs>
    <linearGradient id="bg" x1="0%" y1="0%" x2="100%" y2="100%">
      <stop offset="0%" style="stop-color:#10b981;stop-opacity:1" />
      <stop offset="100%" style="stop-color:#059669;stop-opacity:1" />
    </linearGradient>
  </defs>
  
  <!-- Background circle -->
  <circle cx="16" cy="16" r="15" fill="url(#bg)" stroke="#047857" stroke-width="1"/>
  
  <!-- Main leaf -->
  <path d="M16 8c-3 0-6 2-7 5-1 3 0 6 2 8 2 2 5 3 5 3s3-1 5-3c2-2 3-5 2-8-1-3-4-5-7-5z" 
        fill="#ffffff" stroke="#10b981" stroke-width="0.5"/>
  
  <!-- Leaf vein -->
  <path d="M16 10l-3 4 3 4 3-4z" fill="#10b981" stroke="none"/>
  
  <!-- Decorative elements -->
  <circle cx="12" cy="14" r="0.8" fill="#ffffff" opacity="0.9"/>
  <circle cx="20" cy="14" r="0.8" fill="#ffffff" opacity="0.9"/>
  <circle cx="16" cy="20" r="0.8" fill="#ffffff" opacity="0.9"/>
  
  <!-- Small leaf accent -->
  <path d="M22 12c-1 0-2 0.5-2 1.5s1 1.5 2 1.5 2-0.5 2-1.5-1-1.5-2-1.5z" 
        fill="#ffffff" opacity="0.7"/>
</svg> 